<?xml version="1.0" encoding="UTF-8" ?>
<!DOCTYPE svg PUBLIC "-//W3C//DTD SVG 1.1//EN" "http://www.w3.org/Graphics/SVG/1.1/DTD/svg11.dtd">
<svg xmlns="http://www.w3.org/2000/svg" version="1.1" width="262px" height="262px" style="shape-rendering:geometricPrecision; text-rendering:geometricPrecision; image-rendering:optimizeQuality; fill-rule:evenodd; clip-rule:evenodd" xmlns:xlink="http://www.w3.org/1999/xlink">
    <g><path style="opacity:1" fill="#fefefe" d="M -0.5,-0.5 C 86.8333,-0.5 174.167,-0.5 261.5,-0.5C 261.5,86.8333 261.5,174.167 261.5,261.5C 174.167,261.5 86.8333,261.5 -0.5,261.5C -0.5,174.167 -0.5,86.8333 -0.5,-0.5 Z" /></g>
    <g><path style="opacity:1" fill="#a79cce" d="M 143.5,21.5 C 146.495,21.2938 149.162,21.9605 151.5,23.5C 148.572,23.4349 145.905,22.7682 143.5,21.5 Z" /></g>
    <g><path style="opacity:1" fill="#c8beec" d="M 158.5,24.5 C 162.708,24.677 166.374,26.0103 169.5,28.5C 168.833,28.5 168.167,28.5 167.5,28.5C 164.5,27.1667 161.5,25.8333 158.5,24.5 Z" /></g>
    <g><path style="opacity:1" fill="#5b48ab" d="M 143.5,21.5 C 145.905,22.7682 148.572,23.4349 151.5,23.5C 153.861,23.6741 156.194,24.0074 158.5,24.5C 161.5,25.8333 164.5,27.1667 167.5,28.5C 157.044,25.5841 146.377,23.7508 135.5,23C 126.492,22.5592 117.492,22.7258 108.5,23.5C 119.949,21.7362 131.615,21.0696 143.5,21.5 Z" /></g>
    <g><path style="opacity:1" fill="#5d45be" d="M 167.5,28.5 C 168.167,28.5 168.833,28.5 169.5,28.5C 203.048,42.0432 225.048,66.0432 235.5,100.5C 235.811,105.667 236.645,110.667 238,115.5C 238.832,125.184 238.665,134.851 237.5,144.5C 236.604,143.494 235.938,143.494 235.5,144.5C 237.171,146.51 237.838,148.843 237.5,151.5C 228.321,195.236 202.321,223.236 159.5,235.5C 140.133,239.367 120.8,239.367 101.5,235.5C 97.737,235.143 94.0704,234.31 90.5,233C 55.2003,217.878 33.2003,191.712 24.5,154.5C 24.423,150.785 24.7564,147.119 25.5,143.5C 24.5,143.5 23.5,143.5 22.5,143.5C 22.1696,130.412 22.8362,117.412 24.5,104.5C 25.9312,103.097 27.0978,101.431 28,99.5C 29.6243,94.666 30.7909,89.666 31.5,84.5C 42.9286,60.571 60.5953,42.7377 84.5,31C 92.234,27.5679 100.234,25.0679 108.5,23.5C 117.492,22.7258 126.492,22.5592 135.5,23C 146.377,23.7508 157.044,25.5841 167.5,28.5 Z" /></g>
    <g><path style="opacity:1" fill="#fdfcfd" d="M 183.5,58.5 C 183.154,63.216 182.487,67.8827 181.5,72.5C 180.032,76.7061 179.032,81.0394 178.5,85.5C 177.076,87.5145 176.41,89.8478 176.5,92.5C 175.097,96.3811 174.097,100.381 173.5,104.5C 172.076,106.515 171.41,108.848 171.5,111.5C 169.302,119.432 167.302,127.432 165.5,135.5C 164.076,137.515 163.41,139.848 163.5,142.5C 162.971,146.32 161.638,149.82 159.5,153C 134.139,170.677 108.472,187.843 82.5,204.5C 80.9271,204.248 79.5938,203.582 78.5,202.5C 79.0824,197.087 80.0824,191.754 81.5,186.5C 83.8526,175.355 86.5193,164.355 89.5,153.5C 89.5,152.833 89.5,152.167 89.5,151.5C 90.9721,147.296 92.3055,142.963 93.5,138.5C 94.9238,136.485 95.5905,134.152 95.5,131.5C 96.01,128.461 96.6766,125.461 97.5,122.5C 98.9238,120.485 99.5905,118.152 99.5,115.5C 100.319,111.718 102.319,108.551 105.5,106C 129.774,90.0577 153.774,73.7244 177.5,57C 179.84,56.2516 181.84,56.7516 183.5,58.5 Z" /></g>
    <g><path style="opacity:1" fill="#c1b4ee" d="M 183.5,58.5 C 184.498,62.0057 184.498,65.6724 183.5,69.5C 182.833,70.5 182.167,71.5 181.5,72.5C 182.487,67.8827 183.154,63.216 183.5,58.5 Z" /></g>
    <g><path style="opacity:1" fill="#6552b1" d="M 183.5,69.5 C 181.292,82.574 177.958,95.2407 173.5,107.5C 173.5,106.5 173.5,105.5 173.5,104.5C 174.097,100.381 175.097,96.3811 176.5,92.5C 177.924,90.4855 178.59,88.1522 178.5,85.5C 179.032,81.0394 180.032,76.7061 181.5,72.5C 182.167,71.5 182.833,70.5 183.5,69.5 Z" /></g>
    <g><path style="opacity:1" fill="#9c90d0" d="M 178.5,85.5 C 178.59,88.1522 177.924,90.4855 176.5,92.5C 176.41,89.8478 177.076,87.5145 178.5,85.5 Z" /></g>
    <g><path style="opacity:1" fill="#7260b8" d="M 31.5,84.5 C 30.7909,89.666 29.6243,94.666 28,99.5C 27.0978,101.431 25.9312,103.097 24.5,104.5C 25.6646,97.3354 27.998,90.6687 31.5,84.5 Z" /></g>
    <g><path style="opacity:1" fill="#ada1de" d="M 173.5,104.5 C 173.5,105.5 173.5,106.5 173.5,107.5C 173.011,108.995 172.345,110.329 171.5,111.5C 171.41,108.848 172.076,106.515 173.5,104.5 Z" /></g>
    <g><path style="opacity:1" fill="#ab9fd9" d="M 99.5,115.5 C 99.5905,118.152 98.9238,120.485 97.5,122.5C 97.4095,119.848 98.0762,117.515 99.5,115.5 Z" /></g>
    <g><path style="opacity:1" fill="#6f5eb0" d="M 127.5,121.5 C 126.207,123.296 124.707,124.963 123,126.5C 122.833,127.833 122.667,129.167 122.5,130.5C 123.067,133.375 124.067,136.042 125.5,138.5C 124.288,137.77 123.288,136.77 122.5,135.5C 121.343,132.216 121.176,128.882 122,125.5C 123.451,123.536 125.284,122.203 127.5,121.5 Z" /></g>
    <g><path style="opacity:1" fill="#5c45bb" d="M 127.5,121.5 C 137.212,120.709 141.045,125.042 139,134.5C 138.34,136.324 137.173,137.657 135.5,138.5C 132.57,139.299 129.57,139.632 126.5,139.5C 125.833,139.5 125.5,139.167 125.5,138.5C 124.067,136.042 123.067,133.375 122.5,130.5C 122.667,129.167 122.833,127.833 123,126.5C 124.707,124.963 126.207,123.296 127.5,121.5 Z" /></g>
    <g><path style="opacity:1" fill="#6350ac" d="M 235.5,100.5 C 237.109,103.906 238.276,107.573 239,111.5C 239.547,118.83 240.047,126.163 240.5,133.5C 240.56,139.809 239.56,145.809 237.5,151.5C 237.838,148.843 237.171,146.51 235.5,144.5C 235.938,143.494 236.604,143.494 237.5,144.5C 238.665,134.851 238.832,125.184 238,115.5C 236.645,110.667 235.811,105.667 235.5,100.5 Z" /></g>
    <g><path style="opacity:1" fill="#c2b7ea" d="M 95.5,131.5 C 95.5905,134.152 94.9238,136.485 93.5,138.5C 93.4095,135.848 94.0762,133.515 95.5,131.5 Z" /></g>
    <g><path style="opacity:1" fill="#604daa" d="M 24.5,104.5 C 22.8362,117.412 22.1696,130.412 22.5,143.5C 23.5,143.5 24.5,143.5 25.5,143.5C 24.7564,147.119 24.423,150.785 24.5,154.5C 23.144,151.423 22.3106,148.09 22,144.5C 21.3333,134.5 21.3333,124.5 22,114.5C 22.5348,110.962 23.3681,107.628 24.5,104.5 Z" /></g>
    <g><path style="opacity:1" fill="#5e4ca9" d="M 97.5,122.5 C 96.6766,125.461 96.01,128.461 95.5,131.5C 94.0762,133.515 93.4095,135.848 93.5,138.5C 92.3055,142.963 90.9721,147.296 89.5,151.5C 90.9638,142.016 93.1305,132.683 96,123.5C 96.3826,122.944 96.8826,122.611 97.5,122.5 Z" /></g>
    <g><path style="opacity:1" fill="#b5acda" d="M 135.5,138.5 C 135.389,139.117 135.056,139.617 134.5,140C 131.633,140.801 128.966,140.634 126.5,139.5C 129.57,139.632 132.57,139.299 135.5,138.5 Z" /></g>
    <g><path style="opacity:1" fill="#a99cdb" d="M 165.5,135.5 C 165.59,138.152 164.924,140.485 163.5,142.5C 163.41,139.848 164.076,137.515 165.5,135.5 Z" /></g>
    <g><path style="opacity:1" fill="#614cb2" d="M 89.5,153.5 C 86.5193,164.355 83.8526,175.355 81.5,186.5C 80.5,188.5 79.5,190.5 78.5,192.5C 79.162,188.843 79.8287,185.176 80.5,181.5C 79.862,178.497 79.6953,175.497 80,172.5C 80.9147,173.328 81.5814,174.328 82,175.5C 83.9343,168.48 85.601,161.48 87,154.5C 87.6708,153.748 88.5041,153.414 89.5,153.5 Z" /></g>
    <g><path style="opacity:1" fill="#c0b3e9" d="M 81.5,186.5 C 80.0824,191.754 79.0824,197.087 78.5,202.5C 77.4095,199.319 77.4095,195.985 78.5,192.5C 79.5,190.5 80.5,188.5 81.5,186.5 Z" /></g>
    <g><path style="opacity:1" fill="#6553af" d="M 101.5,235.5 C 120.8,239.367 140.133,239.367 159.5,235.5C 140.153,242.063 120.819,242.063 101.5,235.5 Z" /></g>
</svg>
