<svg xmlns="http://www.w3.org/2000/svg" height="30" viewBox="0 96 960 960" width="48"><path d="m610.923 930.46-259.846-91.692-177.076 69.999q-17.461 8.847-33.23-1.192-15.77-10.038-15.77-30.115V327.463q0-12.847 6.847-22.77 6.846-9.923 18.692-14.153l200.537-70 259.846 90.692 176.076-69.615q16.461-8.231 32.73 1.423 16.27 9.654 16.27 29.346v556.151q0 11.616-7.923 19.924-7.924 8.307-17.154 11.923L610.923 930.46ZM578 857.923V358.924l-195-67.231v499.999l195 66.231Zm58.384 0 141.231-46.154V304.77l-141.231 54.154v498.999ZM183.385 845.23l141.231-53.538V291.693l-141.231 46.923V845.23Zm452.999-486.306v498.999-498.999Zm-311.768-67.231v499.999-499.999Z"/></svg>